<svg width="512" height="512" viewBox="0 0 512 512" fill="none" xmlns="http://www.w3.org/2000/svg">
<g clip-path="url(#clip0)">
<rect width="512" height="512" rx="110" fill="black"/>
<path d="M1 74C31.4999 74 60.7506 84.5357 82.3173 103.289C103.884 122.043 116 147.478 116 174C116 200.522 103.884 225.957 82.3173 244.711C60.7506 263.464 31.4999 274 1.00002 274L1.00001 237.913C20.4934 237.913 39.1884 231.179 52.9723 219.193C66.7562 207.207 74.4999 190.951 74.4999 174C74.4999 157.049 66.7562 140.793 52.9723 128.807C39.1884 116.821 20.4934 110.087 1 110.087V74Z" fill="white"/>
<path d="M1 245C31.4999 245 60.7506 255.536 82.3173 274.289C103.884 293.043 116 318.478 116 345C116 371.522 103.884 396.957 82.3173 415.711C60.7506 434.464 31.4999 445 1.00002 445L1.00001 408.913C20.4934 408.913 39.1884 402.179 52.9723 390.193C66.7562 378.207 74.4999 361.951 74.4999 345C74.4999 328.049 66.7562 311.793 52.9723 299.807C39.1884 287.821 20.4934 281.087 1 281.087V245Z" fill="white"/>
<path d="M-5.9632 416.144L517.1 236.556L513.493 270.458L-9.9334 453.462L-5.9632 416.144Z" fill="white"/>
</g>
<defs>
<clipPath id="clip0">
<rect width="512" height="512" rx="110" fill="white"/>
</clipPath>
</defs>
</svg>
